<?xml version="1.0" encoding="UTF-8"?>
<svg width="377px" height="381px" viewBox="0 0 377 381" version="1.1" xmlns="http://www.w3.org/2000/svg" xmlns:xlink="http://www.w3.org/1999/xlink">
    <!-- Generator: Sketch 43.1 (39012) - http://www.bohemiancoding.com/sketch -->
    <title>Group</title>
    <desc>Created with Sketch.</desc>
    <defs>
        <polygon id="path-1" points="530.5617 594.5 0.44056 594.5 0.44056 0.118544444 530.5617 0.118544444"></polygon>
    </defs>
    <g id="Page-1" stroke="none" stroke-width="1" fill="none" fill-rule="evenodd">
        <g id="Group" transform="translate(-77.000000, -28.000000)">
            <mask id="mask-2" fill="white">
                <use xlink:href="#path-1"></use>
            </mask>
            <g id="Clip-2"></g>
            <path d="M88.6342,315.7424 C91.3934,318.9596 92.6758,322.8867 96.1334,327.8594 C99.1827,332.233 89.1036,333.2635 86.3367,333.0421 C82.8218,332.7711 76.8873,325.9054 77.0972,322.3753 C77.3186,319.0588 86.4855,313.2235 88.6342,315.7424" id="Fill-3" fill="#FFFFFF" mask="url(#mask-2)"></path>
            <path d="M85.4288,298.5628 C82.1848,301.5243 102.1866,345.1496 119.7459,333.5898 C132.0156,325.5028 142.0795,325.9531 132.9163,312.8629 C125.9017,302.8334 117.1011,280.9768 114.8265,280.9768 C109.4301,280.9768 85.4288,296.4333 85.4288,298.5628" id="Fill-4" fill="#FFFFFF" mask="url(#mask-2)"></path>
            <path d="M118.0025,276.3689 C115.1097,278.9679 133.6994,307.3886 141.981,320.2423 C145.6104,325.8829 172.9091,308.8083 179.958,307.1406 C215.0765,298.8552 248.6609,303.9806 284.3748,303.4577 C247.203,260.4164 219.1983,217.3254 198.4447,164.2163 C175.3173,208.6659 141.6299,263.1107 118.0025,276.3689" id="Fill-5" fill="#FFFFFF" mask="url(#mask-2)"></path>
            <path d="M205.2207,156.719 C194.405,160.4629 229.5732,221.3726 244.377,243.0116 C253.9332,256.9339 263.2796,270.879 273.5877,284.2441 C282.0639,295.2315 300.0774,310.4284 291.7691,285.9843 C289.6968,279.8705 275.599,242.7445 270.3972,244.8321 C252.9791,251.8008 247.9377,239.2868 239.5607,225.0784 C236.6678,220.1857 232.6225,211.118 237.5113,206.5994 C245.1441,199.5581 244.8693,200.1267 237.9883,191.017 C229.8098,180.1631 212.8535,154.7039 205.2207,156.719" id="Fill-6" fill="#FFFFFF" mask="url(#mask-2)"></path>
            <path d="M249.4001,205.156 C228.9328,211.6362 251.4953,248.7011 264.1811,242.3545 C282.7784,233.0386 268.6233,202.2937 249.4001,205.156" id="Fill-7" fill="#FFFFFF" mask="url(#mask-2)"></path>
            <path d="M142.5183,326.8191 C127.9015,333.8107 128.3557,332.4216 132.859,347.7902 C135.6068,357.2015 139.0149,366.2234 142.4802,375.4057 C147.1324,387.7785 157.2382,414.6727 174.2937,406.6506 C180.8388,403.586 193.4673,399.3384 197.8714,393.7015 C206.5118,382.6301 197.5203,384.4315 194.1276,374.6729 C192.1392,368.9903 188.8304,375.6538 186.8611,365.7731 C186.0864,361.9223 179.423,360.5484 176.0302,358.7051 C169.4354,355.152 176.2401,344.4394 167.5921,338.9362 C164.4627,336.9707 175.6791,319.9228 165.8709,317.0186 C162.7949,316.0912 146.4531,325.6818 142.5183,326.8191" id="Fill-8" fill="#FFFFFF" mask="url(#mask-2)"></path>
            <polygon id="Fill-9" fill="#FFFFFF" mask="url(#mask-2)" points="241.1708 173.4417 297.6269 114.6195 260.7222 108.2881 297.6269 28.7046 222.3636 118.6611 257.0318 130.7743"></polygon>
            <polygon id="Fill-10" fill="#FFFFFF" mask="url(#mask-2)" points="310.321 141.7289 336.8488 169.9856 279.1715 217.8394 383.5539 176.317 351.2595 149.2091 444.6698 85.2118"></polygon>
            <polygon id="Fill-11" fill="#FFFFFF" mask="url(#mask-2)" points="335.6791 227.8663 343.766 263.9771 297.6257 272.6212 377.2053 288.5089 361.9092 254.1765 453.9112 244.0821"></polygon>
        </g>
    </g>
</svg>