<?xml version="1.0" encoding="UTF-8"?>
<svg width="389px" height="389px" viewBox="0 0 389 389" version="1.1" xmlns="http://www.w3.org/2000/svg" xmlns:xlink="http://www.w3.org/1999/xlink">
    <!-- Generator: Sketch 43.1 (39012) - http://www.bohemiancoding.com/sketch -->
    <title>Artboard</title>
    <desc>Created with Sketch.</desc>
    <defs>
        <polygon id="path-1" points="475.607098 532.552101 0.394927608 532.552101 0.394927608 0.106191914 475.607098 0.106191914"></polygon>
        <polygon id="path-3" points="475.607098 532.552101 0.394927608 532.552101 0.394927608 0.106191914 475.607098 0.106191914"></polygon>
        <polygon id="path-5" points="475.607098 532.552101 0.394927608 532.552101 0.394927608 0.106191914 475.607098 0.106191914"></polygon>
        <polygon id="path-7" points="475.607098 532.552101 0.394927608 532.552101 0.394927608 0.106191914 475.607098 0.106191914"></polygon>
        <polygon id="path-9" points="475.607098 532.552101 0.394927608 532.552101 0.394927608 0.106191914 475.607098 0.106191914"></polygon>
        <polygon id="path-11" points="475.607098 532.552101 0.394927608 532.552101 0.394927608 0.106191914 475.607098 0.106191914"></polygon>
        <polygon id="path-13" points="475.607098 532.552101 0.394927608 532.552101 0.394927608 0.106191914 475.607098 0.106191914"></polygon>
        <polygon id="path-15" points="475.607098 532.552101 0.394927608 532.552101 0.394927608 0.106191914 475.607098 0.106191914"></polygon>
        <polygon id="path-17" points="475.607098 532.552101 0.394927608 532.552101 0.394927608 0.106191914 475.607098 0.106191914"></polygon>
    </defs>
    <g id="Page-1" stroke="none" stroke-width="1" fill="none" fill-rule="evenodd">
        <g id="Artboard">
            <rect id="Rectangle" fill="#6BB447" x="0" y="0" width="389" height="389"></rect>
            <g id="badge-+-megaphone" transform="translate(-20.000000, -4.000000)">
                <g id="Fill-3-Clipped">
                    <mask id="mask-2" fill="white">
                        <use xlink:href="#path-1"></use>
                    </mask>
                    <g id="path-1"></g>
                    <path d="M79.4536331,282.841511 C81.9270403,285.723474 83.0766117,289.241363 86.1760798,293.695899 C88.909539,297.613763 79.8744136,298.536883 77.394104,298.338553 C74.2432708,298.095792 68.9234554,291.94551 69.1116143,288.783252 C69.3100821,285.812337 77.5274915,280.585085 79.4536331,282.841511" id="Fill-3" fill="#FFFFFF" fill-rule="nonzero" mask="url(#mask-2)"></path>
                </g>
                <g id="Fill-4-Clipped">
                    <mask id="mask-4" fill="white">
                        <use xlink:href="#path-3"></use>
                    </mask>
                    <g id="path-1"></g>
                    <path d="M76.5802426,267.452054 C73.6722501,270.104961 91.6023006,309.184432 107.342841,298.829182 C118.341668,291.584861 127.363168,291.988239 119.149075,280.26206 C112.861034,271.277651 104.971984,251.698545 102.932983,251.698545 C98.0955322,251.698545 76.5802426,265.544452 76.5802426,267.452054" id="Fill-4" fill="#FFFFFF" fill-rule="nonzero" mask="url(#mask-4)"></path>
                </g>
                <g id="Fill-5-Clipped">
                    <mask id="mask-6" fill="white">
                        <use xlink:href="#path-5"></use>
                    </mask>
                    <g id="path-1"></g>
                    <path d="M105.780019,247.570796 C103.18685,249.898976 119.851063,275.358191 127.27487,286.872514 C130.528344,291.925354 154.999495,276.629956 161.318282,275.136033 C192.799273,267.713986 222.905063,272.305311 254.919783,271.836898 C221.598169,233.280573 196.494145,194.679728 177.890164,147.104686 C157.158258,186.922563 126.960136,235.694123 105.780019,247.570796" id="Fill-5" fill="#FFFFFF" fill-rule="nonzero" mask="url(#mask-6)"></path>
                </g>
                <g id="Fill-6-Clipped">
                    <mask id="mask-8" fill="white">
                        <use xlink:href="#path-7"></use>
                    </mask>
                    <g id="path-1"></g>
                    <path d="M183.964319,140.388617 C174.268889,143.742396 205.794432,198.305203 219.064881,217.689383 C227.631268,230.160956 236.009585,242.652953 245.249991,254.625387 C252.848242,264.467882 268.995937,278.081239 261.548195,256.184255 C259.69054,250.707524 247.052964,217.450115 242.389957,219.320184 C226.775992,225.562733 222.256771,214.352713 214.747445,201.624852 C212.154186,197.24198 208.527891,189.11915 212.910318,185.071395 C219.752527,178.763811 219.50619,179.273162 213.337911,171.112708 C206.006525,161.389802 190.806527,138.583494 183.964319,140.388617" id="Fill-6" fill="#FFFFFF" fill-rule="nonzero" mask="url(#mask-8)"></path>
                </g>
                <g id="Fill-7-Clipped">
                    <mask id="mask-10" fill="white">
                        <use xlink:href="#path-9"></use>
                    </mask>
                    <g id="path-1"></g>
                    <path d="M223.567698,183.7784 C205.220363,189.583352 225.445881,222.786027 236.817709,217.100754 C253.488735,208.755586 240.799794,181.214356 223.567698,183.7784" id="Fill-7" fill="#FFFFFF" fill-rule="nonzero" mask="url(#mask-10)"></path>
                </g>
                <g id="Fill-8-Clipped">
                    <mask id="mask-12" fill="white">
                        <use xlink:href="#path-11"></use>
                    </mask>
                    <g id="path-1"></g>
                    <path d="M127.756518,292.764001 C114.653699,299.027064 115.060853,297.782711 119.09771,311.549877 C121.560898,319.980503 124.615993,328.062306 127.722364,336.287795 C131.892698,347.371329 140.951757,371.463108 156.24068,364.276924 C162.107851,361.531661 173.428314,357.726668 177.376246,352.677142 C185.121689,342.759401 177.061512,344.373092 174.020221,335.631354 C172.237776,330.540891 169.271696,336.510043 167.506372,327.658928 C166.811914,324.209388 160.838697,322.978651 157.797317,321.327426 C151.885594,318.144565 157.985476,308.548236 150.23322,303.618478 C147.427957,301.857787 157.482583,286.586307 148.690298,283.984729 C145.932905,283.153966 131.283758,291.745209 127.756518,292.764001" id="Fill-8" fill="#FFFFFF" fill-rule="nonzero" mask="url(#mask-12)"></path>
                </g>
                <g id="Fill-9-Clipped">
                    <mask id="mask-14" fill="white">
                        <use xlink:href="#path-13"></use>
                    </mask>
                    <g id="path-1"></g>
                    <polygon id="Fill-9" fill="#FFFFFF" fill-rule="nonzero" mask="url(#mask-14)" points="216.190774 155.368783 266.799255 102.675955 233.717076 97.004298 266.799255 25.7135324 199.331589 106.296414 230.408921 117.147398"></polygon>
                </g>
                <g id="Fill-10-Clipped">
                    <mask id="mask-16" fill="white">
                        <use xlink:href="#path-15"></use>
                    </mask>
                    <g id="path-1"></g>
                    <polygon id="Fill-10" fill="#FFFFFF" fill-rule="nonzero" mask="url(#mask-16)" points="278.178524 126.96051 301.958623 152.272815 250.255431 195.140168 343.826095 157.944472 314.876689 133.661261 398.611723 76.3325872"></polygon>
                </g>
                <g id="Fill-11-Clipped">
                    <mask id="mask-18" fill="white">
                        <use xlink:href="#path-17"></use>
                    </mask>
                    <g id="path-1"></g>
                    <polygon id="Fill-11" fill="#FFFFFF" fill-rule="nonzero" mask="url(#mask-18)" points="300.910078 204.122249 308.159352 236.470243 266.798179 244.213613 338.135071 258.445788 324.423313 227.690882 406.895916 218.648335"></polygon>
                </g>
            </g>
        </g>
    </g>
</svg>